<svg xmlns="http://www.w3.org/2000/svg" viewBox="0 0 596.56 610.73"><defs><style>.cls-1{fill:#3a2c9d;}.cls-2{fill:#39b0fb;}.cls-3{fill:#666;}</style></defs><title>fmzuerichch</title><g id="Layer_1" data-name="Layer 1"><path class="cls-1" d="M720.36,250,573.29,397.08c.14,4-25.16-12.8-36.88,8.23-6.7,9.06,13.21,14.44,12.85,25.14,5.42,18.85-16.26,36.48-34,28.27-7.29-2.07-34-32.68-39.54-37.1L251.08,646.32l.57.58-9.26,38.62L183.7,714.86,148.94,680.1l29.35-58.71,37.08-8.87L441,386.88c-83.11-67.36-8.73-89.92,9-60.95,3.72,4.87,3.84,1.51,9.47-1.24,24.49-27.37-6.27-29.39,10.89-40.17,145.29-141.3,162-187.77,232.46-155.27l-180,180a18.75,18.75,0,0,0,26.51,26.51L730.43,154.71A76.16,76.16,0,0,1,720.36,250Z" transform="translate(-148.94 -119.35)"/></g><g id="Layer_2" data-name="Layer 2"><path class="cls-2" d="M154.55,323.44l-.32-.35,192-192a20.9,20.9,0,0,1,29.57,0l88.7,88.69a20.92,20.92,0,0,1,0,29.57l-192,192-.18-.18a8.59,8.59,0,0,1-6.49,3H160.24a8.7,8.7,0,0,1-8.72-8.7V329.93A8.59,8.59,0,0,1,154.55,323.44Zm178.27,57.79,141.29,141.3L463.83,532.8a27.82,27.82,0,0,0,0,39.32L613.66,721.94a27.81,27.81,0,0,0,39.31,0L716.86,658a27.81,27.81,0,0,0,0-39.31L567,468.9a27.82,27.82,0,0,0-39.31,0l-9.38,9.38L377.06,337Z" transform="translate(-148.94 -119.35)"/></g><g id="text"><path class="cls-3" d="M388.36,660.17a17.49,17.49,0,0,0-4.55-2.74,12.08,12.08,0,0,0-4.4-.89,7.14,7.14,0,0,0-4.4,1.28,4,4,0,0,0-1.71,3.34,3.29,3.29,0,0,0,.86,2.34,7.26,7.26,0,0,0,2.23,1.6,19.3,19.3,0,0,0,3.13,1.17c1.16.33,2.3.69,3.44,1.07q6.81,2.26,10,6.07a15,15,0,0,1,3.16,9.9,19.37,19.37,0,0,1-1.39,7.46,15.44,15.44,0,0,1-4,5.71,18.46,18.46,0,0,1-6.53,3.69,27.07,27.07,0,0,1-8.77,1.32,32.18,32.18,0,0,1-18.81-6l6-11.21a24.21,24.21,0,0,0,6.18,4.11,14.82,14.82,0,0,0,6,1.35,7.2,7.2,0,0,0,5.08-1.56,4.75,4.75,0,0,0,1.67-3.55,4.7,4.7,0,0,0-.43-2.09,4.41,4.41,0,0,0-1.42-1.64,11.25,11.25,0,0,0-2.59-1.38c-1.06-.43-2.35-.9-3.87-1.42q-2.7-.85-5.29-1.88a16.61,16.61,0,0,1-4.61-2.74,12.62,12.62,0,0,1-3.27-4.29,15.19,15.19,0,0,1-1.24-6.57,19.13,19.13,0,0,1,1.31-7.21,16.07,16.07,0,0,1,3.69-5.53,16.45,16.45,0,0,1,5.83-3.59,22,22,0,0,1,7.7-1.28,33.94,33.94,0,0,1,8.31,1.1,37,37,0,0,1,8.3,3.23Z" transform="translate(-148.94 -119.35)"/><path class="cls-3" d="M423.64,688.21h22.44V700h-45.8l25.35-41.75H404.54V646.46h44.31Z" transform="translate(-148.94 -119.35)"/><path class="cls-3" d="M471.78,163.21h22.43V175H448.42l25.35-41.75H452.68V121.46H497Z" transform="translate(-148.94 -119.35)"/><path class="cls-3" d="M517.57,142.12h20.09V121.46h13.92V175H537.66V152.92H517.57V175H503.66V121.46h13.91Z" transform="translate(-148.94 -119.35)"/><path class="cls-3" d="M187.76,529.7H167.88l-3.19,9.3H149.85l20.38-53.54h15.19L205.8,539H191Zm-3.69-10.58-6.25-17.82-6.24,17.82Z" transform="translate(-148.94 -119.35)"/><path class="cls-3" d="M236.26,509h27.62a75.36,75.36,0,0,1-.36,7.73,27.69,27.69,0,0,1-1.42,6.47,25.49,25.49,0,0,1-4.05,7.41,23.37,23.37,0,0,1-6,5.4,27.62,27.62,0,0,1-7.56,3.3,32.28,32.28,0,0,1-8.66,1.14,30.46,30.46,0,0,1-11.39-2.06,25.53,25.53,0,0,1-8.84-5.79,26.12,26.12,0,0,1-5.76-8.94,33.54,33.54,0,0,1,0-23,25.22,25.22,0,0,1,5.75-8.91,26.18,26.18,0,0,1,9-5.75A31.93,31.93,0,0,1,236.26,484,29.06,29.06,0,0,1,251,487.59a25.08,25.08,0,0,1,10,11.22l-13.2,5.47A13.44,13.44,0,0,0,243,498a12,12,0,0,0-6.71-1.92,13.45,13.45,0,0,0-5.68,1.17,12.33,12.33,0,0,0-4.37,3.34,16.05,16.05,0,0,0-2.84,5.22,21.12,21.12,0,0,0-1,6.81,21.6,21.6,0,0,0,.89,6.32,14.26,14.26,0,0,0,2.66,5.05,12,12,0,0,0,4.4,3.3,14.9,14.9,0,0,0,6.11,1.17,17.41,17.41,0,0,0,4-.46,10.75,10.75,0,0,0,3.44-1.49,8.48,8.48,0,0,0,2.52-2.67,10.75,10.75,0,0,0,1.35-4H236.26Z" transform="translate(-148.94 -119.35)"/><path class="cls-3" d="M675.36,407.17a17.49,17.49,0,0,0-4.55-2.74,12.08,12.08,0,0,0-4.4-.89,7.14,7.14,0,0,0-4.4,1.28,4,4,0,0,0-1.71,3.34,3.29,3.29,0,0,0,.86,2.34,7.26,7.26,0,0,0,2.23,1.6,19.3,19.3,0,0,0,3.13,1.17c1.16.33,2.3.69,3.44,1.07q6.81,2.27,10,6.07a15,15,0,0,1,3.16,9.9,19.37,19.37,0,0,1-1.39,7.46,15.44,15.44,0,0,1-4.05,5.71,18.46,18.46,0,0,1-6.53,3.69,27.07,27.07,0,0,1-8.77,1.32,32.18,32.18,0,0,1-18.81-6l6-11.21a24.21,24.21,0,0,0,6.18,4.11,14.82,14.82,0,0,0,6,1.35,7.2,7.2,0,0,0,5.08-1.56,4.75,4.75,0,0,0,1.67-3.55,4.7,4.7,0,0,0-.43-2.09,4.41,4.41,0,0,0-1.42-1.64,11.25,11.25,0,0,0-2.59-1.38c-1.06-.43-2.35-.9-3.87-1.42q-2.7-.85-5.29-1.88a16.61,16.61,0,0,1-4.61-2.74,12.62,12.62,0,0,1-3.27-4.29,15.19,15.19,0,0,1-1.24-6.57,19.13,19.13,0,0,1,1.31-7.21,16.07,16.07,0,0,1,3.69-5.53,16.45,16.45,0,0,1,5.83-3.59,22,22,0,0,1,7.7-1.28,33.94,33.94,0,0,1,8.31,1.1,37,37,0,0,1,8.3,3.23Z" transform="translate(-148.94 -119.35)"/><path class="cls-3" d="M717.88,417H745.5q0,4.26-.35,7.73a27.69,27.69,0,0,1-1.42,6.47,25.73,25.73,0,0,1-4.05,7.41,23.37,23.37,0,0,1-6,5.4,27.62,27.62,0,0,1-7.56,3.3,32.28,32.28,0,0,1-8.66,1.14,30.48,30.48,0,0,1-11.4-2.06,25.62,25.62,0,0,1-8.84-5.79,26.25,26.25,0,0,1-5.75-8.94,33.39,33.39,0,0,1,0-23,25.08,25.08,0,0,1,5.75-8.91,26.08,26.08,0,0,1,9-5.75A31.91,31.91,0,0,1,717.88,392a29.07,29.07,0,0,1,14.7,3.62,25.14,25.14,0,0,1,10,11.22l-13.2,5.47a13.39,13.39,0,0,0-4.8-6.32,12,12,0,0,0-6.71-1.92,13.44,13.44,0,0,0-5.67,1.17,12.25,12.25,0,0,0-4.37,3.34,15.87,15.87,0,0,0-2.84,5.22,23,23,0,0,0-.14,13.13,14.1,14.1,0,0,0,2.66,5.05,12,12,0,0,0,4.4,3.3,14.9,14.9,0,0,0,6.11,1.17,17.32,17.32,0,0,0,4-.46,10.71,10.71,0,0,0,3.45-1.49A8.71,8.71,0,0,0,728,431.8a10.75,10.75,0,0,0,1.35-4H717.88Z" transform="translate(-148.94 -119.35)"/></g></svg>